<svg id="Grupo_239" data-name="Grupo 239" xmlns="http://www.w3.org/2000/svg" xmlns:xlink="http://www.w3.org/1999/xlink" width="257.648" height="101.277" viewBox="0 0 257.648 101.277">
  <defs>
    <style>
      .cls-1 {
        fill: none;
      }

      .cls-2 {
        fill: #148cc9;
      }

      .cls-3 {
        fill: #6e4b94;
      }

      .cls-4 {
        fill: #291d3e;
      }

      .cls-5 {
        clip-path: url(#clip-path);
      }

      .cls-6 {
        fill: #e49100;
      }

      .cls-7 {
        clip-path: url(#clip-path-2);
      }
    </style>
    <clipPath id="clip-path">
      <path id="Trazado_1124" data-name="Trazado 1124" class="cls-1" d="M310.048,72.587,323,70.833l-12.952-1.754,4.674-6.138-6.138,4.674-1.754-12.952-1.754,12.952-6.138-4.674,4.674,6.138-12.952,1.754,12.952,1.754-4.674,6.138,6.138-4.674L306.829,87l1.754-12.952,6.138,4.674Z" transform="translate(-290.659 -54.662)"/>
    </clipPath>
    <clipPath id="clip-path-2">
      <path id="Trazado_1128" data-name="Trazado 1128" class="cls-1" d="M98.213,84.515l8.23-1.115-8.23-1.115,2.97-3.9-3.9,2.97-1.115-8.23-1.115,8.23-3.9-2.97,2.97,3.9L85.893,83.4l8.23,1.115-2.97,3.9,3.9-2.97,1.115,8.23,1.115-8.23,3.9,2.97Z" transform="translate(-85.893 -73.125)"/>
    </clipPath>
  </defs>
  <path id="Trazado_1113" data-name="Trazado 1113" class="cls-2" d="M130.737,97.345l4.851,24.207-8.189,1.593q-2.865-15.4-7.472-34.386l6.035-1.816,1.35,5.395q.659-4.279,5.707-5.807.758-.21,1.461-.342a7.539,7.539,0,0,1,6.651,1.5q3.028,2.692,4.34,9.548l-7.295,2.119q-.072-.575-.172-1.111-1-5.355-3.775-4.839l-.134.025A3.949,3.949,0,0,0,130.737,97.345Z" transform="translate(-65.352 -32.111)"/>
  <path id="Trazado_1114" data-name="Trazado 1114" class="cls-3" d="M157.81,115.212q-3.775-.66-3.362-5.729l2.087-25.369,8.22.618.7-6.627L157.1,77.2l.976-11.861L147.6,64.272l-.351,11.646-7.327-1.026.168,8.4,6.894.4-.932,27.33q-.2,12.011,10.554,12.007S157.908,115.528,157.81,115.212Z" transform="translate(-65.352 -32.111)"/>
  <path id="Trazado_1115" data-name="Trazado 1115" class="cls-4" d="M172.606,109.136l8.1.51q0,12.292-11.338,12.462a.992.992,0,0,1-.239.034q-10.794,0-10.793-16.377v-1.022Q158.679,87.174,169.848,87h.273Q180.4,87,180.4,98.785q0,.681-.034,1.362l-7.321.544v-.817q0-6.2-3.507-6.2-3.575,0-3.575,10.045v1.123q.2,10.863,3.609,10.862h.2q2.963-.239,2.963-4.528A17.075,17.075,0,0,0,172.606,109.136Z" transform="translate(-65.352 -32.111)"/>
  <path id="Trazado_1116" data-name="Trazado 1116" class="cls-4" d="M196.2,87.208q11.2.612,11.2,11.27v24.175l-7.934.136-.272-3.234a8.229,8.229,0,0,1-6.5,2.792,14.37,14.37,0,0,1-3.746-.545q-6.027-1.5-6.027-9.33,0-.953.1-2.043.68-8.068,11.474-8.069a37.579,37.579,0,0,1,4.563.306v-3.95q0-4.8-3.031-4.8H195.9a3.1,3.1,0,0,0-.442-.035q-3.3,0-3.3,5.38v.511l-8.1-.681q0-11.883,11.441-11.883Zm2.86,26.9v-5.993a13.1,13.1,0,0,0-2.656-.306q-3.1,0-4.222,2.077a4.971,4.971,0,0,0-.681,2.349,3.277,3.277,0,0,0,1.089,2.417,3.064,3.064,0,0,0,2.214.818A9.413,9.413,0,0,0,199.063,114.107Z" transform="translate(-65.352 -32.111)"/>
  <path id="Trazado_1117" data-name="Trazado 1117" class="cls-4" d="M235.155,74.984q-.2,11.509-.2,24.141,0,11.509.17,23.971l-8.07.034-.272-5.21a7.719,7.719,0,0,1-6.708,3.78q-10.453,0-10.453-16a6.752,6.752,0,0,1,.034-.681q.2-16.038,10.351-16.038c.273,0,.556.012.851.034q3.474.206,5.619,3.78,0-7.559-.375-17.808Zm-8.512,35.956-.17-11.781q-1.976-2.689-4.052-2.69a3.662,3.662,0,0,0-1.7.443q-2.689,1.4-2.69,7.831,0,.75.034,1.532.341,7.8,3.473,8.24a5.488,5.488,0,0,0,.613.034Q224.872,114.549,226.643,110.94Z" transform="translate(-65.352 -32.111)"/>
  <path id="Trazado_1118" data-name="Trazado 1118" class="cls-4" d="M248.775,88.195q11.816,0,11.815,15.7,0,1.907-.17,4.086H245.2q0,8.751,3.371,8.75h.238q2.962-.237,2.962-4.528a17.06,17.06,0,0,0-.136-2.043l8.1-.17q0,12.972-11.339,13.143a.978.978,0,0,1-.238.034q-10.794,0-10.794-16.378v-1.021Q237.709,88.2,248.775,88.195Zm-4.392,13.518h7.7V100.9q0-6.2-3.507-6.2Q244.791,94.7,244.383,101.713Z" transform="translate(-65.352 -32.111)"/>
  <path id="Trazado_1119" data-name="Trazado 1119" class="cls-4" d="M269.034,87.48l.137,5.448q1.838-3.915,4.256-4.869a8.075,8.075,0,0,1,2.894-.545,8.941,8.941,0,0,1,2.179.273q2.656.681,3.78,5.448.885-3.711,3.064-4.955A9.849,9.849,0,0,1,290.179,87h.136a10.517,10.517,0,0,1,4.972,1.259,8.387,8.387,0,0,1,3.694,4.852,30.871,30.871,0,0,1,1.345,9.755v19.783l-7.355.17q.442-11.2.443-19.067t-3-8.478a5.542,5.542,0,0,0-.852-.069q-2.384,0-3.677,3.065-.2,3.542-.2,8.274,0,6.435.374,15.015l-8.512.068q.476-13.176.477-19.2v-.409q-.034-5.958-2.35-6.265h-.443q-2.076,0-4.017,2.384l.068,24.924-8.036.306v-5.584q0-14.845-.442-29.657Z" transform="translate(-65.352 -32.111)"/>
  <path id="Trazado_1120" data-name="Trazado 1120" class="cls-4" d="M302.777,123.334q-.238-19.918-.238-34.424l8.581-.511q-.41,13.893-.409,27.614,0,3.678.034,7.321Z" transform="translate(-65.352 -32.111)"/>
  <g id="Grupo_235" data-name="Grupo 235" transform="translate(225.307 22.551)">
    <g id="Grupo_234" data-name="Grupo 234" class="cls-5">
      <path id="Trazado_1121" data-name="Trazado 1121" class="cls-3" d="M277.572,70.833h0a29.346,29.346,0,0,0,29.258,29.26V70.833L286.167,50.168A29.174,29.174,0,0,0,277.572,70.833Z" transform="translate(-290.659 -54.662)"/>
      <path id="Trazado_1122" data-name="Trazado 1122" class="cls-2" d="M336.09,70.812a29.169,29.169,0,0,0-8.6-20.643L306.831,70.833v29.26h0A29.345,29.345,0,0,0,336.09,70.855Z" transform="translate(-290.659 -54.662)"/>
      <path id="Trazado_1123" data-name="Trazado 1123" class="cls-6" d="M286.167,50.169l20.664,20.664,20.664-20.664a29.17,29.17,0,0,0-20.664-8.595h0A29.17,29.17,0,0,0,286.167,50.169Z" transform="translate(-290.659 -54.662)"/>
    </g>
  </g>
  <g id="Grupo_238" data-name="Grupo 238">
    <g id="Grupo_237" data-name="Grupo 237" transform="translate(20.541 41.014)">
      <g id="Grupo_236" data-name="Grupo 236" class="cls-7">
        <path id="Trazado_1125" data-name="Trazado 1125" class="cls-3" d="M77.577,83.4h0a18.647,18.647,0,0,0,18.592,18.592V83.4L83.039,70.27A18.536,18.536,0,0,0,77.577,83.4Z" transform="translate(-85.893 -73.125)"/>
        <path id="Trazado_1126" data-name="Trazado 1126" class="cls-2" d="M114.761,83.387A18.536,18.536,0,0,0,109.3,70.27L96.169,83.4v18.593h0a18.647,18.647,0,0,0,18.592-18.579Z" transform="translate(-85.893 -73.125)"/>
        <path id="Trazado_1127" data-name="Trazado 1127" class="cls-6" d="M83.039,70.27,96.169,83.4,109.3,70.27a18.535,18.535,0,0,0-13.131-5.461h0A18.534,18.534,0,0,0,83.039,70.27Z" transform="translate(-85.893 -73.125)"/>
      </g>
    </g>
    <path id="Trazado_1129" data-name="Trazado 1129" class="cls-2" d="M113.623,80.973,111.14,69.147,103.21,79.563Z" transform="translate(-65.352 -32.111)"/>
    <path id="Trazado_1130" data-name="Trazado 1130" class="cls-3" d="M81.2,69.147,78.713,80.973l10.413-1.41Z" transform="translate(-65.352 -32.111)"/>
    <path id="Trazado_1131" data-name="Trazado 1131" class="cls-6" d="M106.02,44.76a20.238,20.238,0,0,1-.382-6.331c.506-3-1.277-5.293-4.067-5.293-1.087,0-1.705,1.095-.375,2.516,2.337,2.5-.048,3.274-1.372,3.274-2.763,0-3.008-1.4-2.76-2.927.3-1.848.827-3.888-.521-3.888-1.718,0-2.089,2.538-1.34,4.976.692,2.254,1.027,4.421-1.028,4.421-3.013,0,.615-5.41-2.184-5.41-1.335,0-.862,2.2-2.671,2.2-3.567,0-.2-5.37-2.828-5.37-2.8,0,.869,7.465-.176,11.835l-4.891,23.3,10.9,8.3L96.168,48.02l3.838,28.339,10.905-8.3Z" transform="translate(-65.352 -32.111)"/>
    <path id="Trazado_1132" data-name="Trazado 1132" class="cls-3" d="M88.186,100.694h5.533L92.33,90.442,78.9,100.669,89.126,87.238l-11.4-1.544-7.236,34.468a31.052,31.052,0,0,1-1.666,4.765c-.912,2.028-3.446,4.187-3.468,6.042a2.287,2.287,0,0,0,2.22,2.419c1.689,0,2.987-2.191,2.914-3.489-.148-2.613,1.192-3.386,2.269-3.386,2.825,0,.755,3.871,2.926,3.871.9,0,1.06-1.388.117-3.043-1.554-2.727-.164-4.338,1.413-4.338,2.641,0-1.326,9.721,1.305,9.721,3.158,0-.849-5.982,1.623-5.982.777,0,.317,1.9,1.668,1.9,1.984,0,.632,2.185,2.329,2.185,1.207,0,.388-2.016.212-2.662a14.716,14.716,0,0,1-.136-6.121Z" transform="translate(-65.352 -32.111)"/>
    <path id="Trazado_1133" data-name="Trazado 1133" class="cls-2" d="M126.036,128.3a16.833,16.833,0,0,1-4.187-8.138h0l-7.237-34.468-11.4,1.544,10.226,13.431-13.43-10.227-1.388,10.252h5.532l3.974,21.347h0a23.32,23.32,0,0,1,.427,3.922c-.17,1.915-1.881,5.038.233,5.038,1.477,0-.4-3.333,1.794-3.333,2.676,0-.109,5.61,2.659,5.61,1.509,0,.821-3.054.232-5.031-.56-1.878.036-3.3,1.806-3.3,3.438,0-.094,5.865,2.694,5.865,2.694,0-1.238-4.353,1.314-4.353,2.495,0-.7,4.354,2.834,4.354,1.829,0,2.038,2.58,3.339,2.58C127.09,133.388,128.94,131.538,126.036,128.3Z" transform="translate(-65.352 -32.111)"/>
  </g>
</svg>
