<svg id="Patreon" xmlns="http://www.w3.org/2000/svg" width="148.099" height="52.75" viewBox="0 0 148.099 52.75">
  <defs>
    <style>
      .cls-1 {
        fill: #fff;
      }
    </style>
  </defs>
  <g id="Grupo_13" data-name="Grupo 13" transform="translate(144.229)">
    <rect id="Rectángulo_2" data-name="Rectángulo 2" class="cls-1" width="3.87" height="52.75"/>
  </g>
  <g id="Grupo_14" data-name="Grupo 14" transform="translate(0 17.148)">
    <path id="Trazado_241" data-name="Trazado 241" class="cls-1" d="M1657.8,110.167h7a5.915,5.915,0,0,1,6.091,5.732c0,.1,0,.209,0,.314a5.912,5.912,0,0,1-5.775,6.047c-.105,0-.211,0-.317,0h-3.13V126.9h-3.869Zm9.2,6.047a2.723,2.723,0,0,0-2.55-2.886c-.042,0-.085,0-.127-.005h-2.652V119.1h2.652a2.722,2.722,0,0,0,2.686-2.758c0-.045,0-.089-.005-.133Z" transform="translate(-1657.792 -109.732)"/>
    <path id="Trazado_242" data-name="Trazado 242" class="cls-1" d="M1685.309,126.891l-.645-2.031h-5.948l-.645,2.031h-4.133l5.973-16.724h3.559l6.047,16.724Zm-3.608-11.945-2.054,6.881h4.06Z" transform="translate(-1657.401 -109.732)"/>
    <path id="Trazado_243" data-name="Trazado 243" class="cls-1" d="M1695.579,113.512h-3.774v-3.345h11.442v3.345h-3.8v13.379h-3.87Z" transform="translate(-1656.969 -109.732)"/>
    <path id="Trazado_244" data-name="Trazado 244" class="cls-1" d="M1708.855,110.167h7.025a5.914,5.914,0,0,1,6.09,5.732c0,.1,0,.209,0,.314a5.857,5.857,0,0,1-3.322,5.4l3.345,5.28H1717.5l-2.963-4.635h-1.814v4.635h-3.87Zm9.2,6.047a2.722,2.722,0,0,0-2.55-2.886c-.042,0-.085,0-.127-.005h-2.652V119.1h2.652a2.723,2.723,0,0,0,2.683-2.761c0-.043,0-.087-.005-.13Z" transform="translate(-1656.557 -109.732)"/>
    <path id="Trazado_245" data-name="Trazado 245" class="cls-1" d="M1731.945,113.273v3.8h6.332v3.034h-6.332v3.679h6.332V126.9h-10.2V110.167h10.2v3.109Z" transform="translate(-1656.092 -109.732)"/>
    <path id="Trazado_246" data-name="Trazado 246" class="cls-1" d="M1744.171,118.54a8.576,8.576,0,0,1,8.35-8.795c.171,0,.342,0,.513,0a8.57,8.57,0,0,1,8.838,8.292c.005.167.006.334,0,.5a8.567,8.567,0,0,1-8.338,8.793c-.167,0-.334,0-.5,0a8.575,8.575,0,0,1-8.861-8.279C1744.167,118.882,1744.167,118.711,1744.171,118.54Zm13.762,0a5.012,5.012,0,0,0-4.9-5.3c-3.057,0-4.9,2.556-4.9,5.3s1.839,5.3,4.9,5.3a5.013,5.013,0,0,0,4.9-5.3Z" transform="translate(-1655.702 -109.743)"/>
    <path id="Trazado_247" data-name="Trazado 247" class="cls-1" d="M1777.813,121.06V110.167h3.846v16.724h-4.037L1771.6,116.14v10.751h-3.87V110.167h4.037Z" transform="translate(-1655.132 -109.732)"/>
  </g>
</svg>
