<?xml version="1.0" encoding="utf-8"?>
<!-- Generator: Adobe Illustrator 24.1.3, SVG Export Plug-In . SVG Version: 6.00 Build 0)  -->
<svg version="1.1" id="Capa_1" xmlns="http://www.w3.org/2000/svg" xmlns:xlink="http://www.w3.org/1999/xlink" x="0px" y="0px"
	 viewBox="0 0 521.5 267.5" style="enable-background:new 0 0 521.5 267.5;" xml:space="preserve">
<style type="text/css">
	.st0{fill:#2E1A46;}
	.st1{fill:#006EAE;}
	.st2{fill:#542F70;}
	.st3{fill:#D47E00;}
</style>
<g id="Capa_2_1_">
	<g id="Capa_1-2">
		<path class="st0" d="M258.5,239.6c-0.4-32.7-0.6-60.9-0.6-84.7l21.1-1.3c-0.7,22.8-1,45.5-1,68c0,6,0,12,0.1,18H258.5z"/>
		<path class="st1" d="M164.3,175l11.9,59.6l-20.2,3.9c-4.7-25.3-10.8-53.5-18.4-84.7l14.9-4.5l3.3,13.3c1.1-7,5.8-11.8,14.1-14.3
			c1.2-0.4,2.4-0.6,3.6-0.8c6.7-1.2,12.1,0,16.4,3.7c5,4.4,8.5,12.2,10.7,23.5l-18,5.2c-0.1-0.9-0.3-1.9-0.4-2.7
			c-1.6-8.8-4.7-12.8-9.3-11.9l-0.3,0.1C167.4,166.6,164.6,169.8,164.3,175z"/>
		<path class="st0" d="M284.5,208.9l19.2-0.9v1.1c0,8.6,2.7,13,8,13.1h0.3c5.2,0,7.7-2.5,7.7-7.5v-0.6c-0.2-5.5-5.3-9.9-15.2-13.2
			s-15.9-9-17.9-16.9c-0.7-2.6-1.1-5.3-1.1-8c0-4.6,1.2-9.1,3.6-13.1c3.7-6.2,9.3-9.7,16.8-10.6c1.9-0.2,3.9-0.3,5.9-0.3
			c4.5-0.1,9,0.8,13.2,2.6c5.2,2.4,8.8,5.8,10.8,10.3c1.4,3.2,2.1,6.7,2,10.2c0,1.9-0.1,3.7-0.4,5.5l-17.9,0.4
			c0.2-1.3,0.2-2.6,0.2-3.9c0-5.6-1.8-8.6-5.4-9c-0.4-0.1-0.8-0.1-1.2-0.1c-3.7,0-6.2,1.9-7.5,5.6c-0.4,1.1-0.6,2.3-0.7,3.5
			c0.1,2.7,1.4,5.3,3.7,6.8c3.5,2.7,8.6,5.4,15.4,8.2c6.5,2.4,11.5,7.6,13.7,14.1c0.8,2.4,1.3,5,1.3,7.6c-0.1,4.5-1.4,9-3.7,12.8
			c-3.9,6.9-10,10.9-18.2,12c-1.7,0.3-3.5,0.4-5.3,0.4c-6,0-12-1.6-17.1-4.8C288,230.2,284.6,221.8,284.5,208.9z"/>
		<path class="st0" d="M359.1,125.8l19-1.3v27.8l16-0.4l0.2,15.8l-16.3,0.8v38.2c0,8.9,3.8,13.3,11.3,13.3c1.7,0,3.4-0.2,5.1-0.6
			l-0.8,18.4c-2.5,0.3-5.1,0.5-7.6,0.5c-17.7,0-26.7-9.1-27-27.3v-41l-13.8,0.8l-0.3-18.7l14.1,0.2L359.1,125.8z"/>
		<path class="st0" d="M433.8,150.1c18.4,1,27.6,10.2,27.6,27.8v59.5l-19.5,0.3l-0.7-8c-4,4.6-9.3,6.9-16,6.9
			c-3.1,0-6.2-0.5-9.2-1.3c-9.9-2.5-14.8-10.1-14.8-23c0-1.6,0.1-3.2,0.2-5c1.1-13.2,10.5-19.9,28.2-19.9c3.8,0,7.5,0.3,11.2,0.8
			v-9.7c0-7.9-2.5-11.8-7.5-11.8H433c-0.4,0-0.7-0.1-1.1-0.1c-5.4,0-8.1,4.4-8.1,13.2v1.2l-20-1.7c0-19.5,9.4-29.3,28.2-29.3
			L433.8,150.1z M440.8,216.4v-14.8c-2.1-0.5-4.3-0.7-6.5-0.8c-5.1,0-8.6,1.7-10.4,5.1c-1,1.8-1.6,3.7-1.7,5.8c0,2.3,1,4.4,2.7,5.9
			c1.5,1.4,3.4,2.1,5.5,2C433.2,219.7,436.7,218.6,440.8,216.4L440.8,216.4z"/>
		<path class="st0" d="M467,208.9l19.2-0.9v1.1c0,8.6,2.7,13,8,13.1h0.3c5.1,0,7.7-2.5,7.7-7.5v-0.6c-0.2-5.5-5.3-9.9-15.2-13.2
			c-9.9-3.4-15.9-9-17.9-16.9c-0.7-2.6-1.1-5.3-1.1-8c0-4.6,1.2-9.1,3.6-13.1c3.7-6.2,9.3-9.7,16.8-10.6c1.9-0.2,3.9-0.3,5.9-0.3
			c4.5-0.1,9,0.8,13.2,2.6c5.2,2.4,8.8,5.8,10.8,10.3c1.4,3.2,2.1,6.7,2,10.2c0,1.9-0.1,3.7-0.4,5.5L502,181
			c0.2-1.3,0.2-2.6,0.2-3.9c0-5.6-1.8-8.6-5.4-9c-0.4-0.1-0.8-0.1-1.2-0.1c-3.7,0-6.2,1.9-7.5,5.6c-0.4,1.1-0.6,2.3-0.7,3.5
			c0.1,2.7,1.4,5.2,3.7,6.8c3.5,2.7,8.6,5.4,15.4,8.2c6.5,2.4,11.5,7.6,13.7,14.1c0.8,2.4,1.3,5,1.3,7.6c-0.1,4.5-1.4,9-3.7,12.8
			c-3.9,6.9-10,10.9-18.2,12c-1.7,0.3-3.5,0.4-5.3,0.4c-6,0-12-1.6-17.1-4.8C470.6,230.3,467.2,221.8,467,208.9z"/>
		<polygon class="st1" points="127.5,129 120.9,97.8 100,125.3 		"/>
		<polygon class="st2" points="41.8,97.8 35.3,129 62.8,125.3 		"/>
		<path class="st3" d="M107.4,33.4c0,0-2.2-9.7-1-16.7c1.3-7.9-3.4-14-10.7-14c-2.9,0-4.5,2.9-1,6.6C100.8,16,94.5,18,91,18
			c-7.3,0-7.9-3.7-7.3-7.7C84.5,5.4,85.9,0,82.4,0c-4.5,0-5.5,6.7-3.5,13.1c1.8,5.9,2.7,11.7-2.7,11.7c-8,0,1.6-14.3-5.8-14.3
			c-3.5,0-2.3,5.8-7,5.8c-9.4,0-0.5-14.2-7.5-14.2c-7.4,0,2.3,19.7-0.5,31.3l-13,61.5l28.8,21.9L81.4,42l10.1,74.8l28.8-21.9
			L107.4,33.4z"/>
		<path class="st2" d="M60.3,181.1h14.6L71.2,154l-35.5,27l27-35.5l-30.1-4.1l-19.1,91c-1.1,4.3-2.6,8.5-4.4,12.6
			c-2.4,5.4-9.1,11.1-9.2,16c0,1.2,0.6,6.4,5.9,6.4c4.5,0,7.9-5.8,7.7-9.2c-0.4-6.9,3.1-8.9,6-8.9c7.5,0,2,10.2,7.7,10.2
			c2.4,0,2.8-3.7,0.3-8c-4.1-7.2-0.4-11.5,3.7-11.5c7,0-3.5,25.7,3.4,25.7c8.3,0-2.2-15.8,4.3-15.8c2,0,0.8,5,4.4,5
			c5.2,0,1.7,5.8,6.2,5.8c3.2,0,1-5.3,0.6-7c-1.3-4.8-1.3-10.2-0.3-16.2L60.3,181.1z"/>
		<path class="st1" d="M160.3,254c-5.6-6-9.4-13.4-11.1-21.5l0,0l-19.1-91l-30.1,4.1l27,35.5L91.5,154l-3.7,27.1h14.6l10.5,56.4l0,0
			c0,0.1,1.4,7.5,1.1,10.4c-0.4,5.1-5,13.3,0.6,13.3c3.9,0-1-8.8,4.7-8.8c7.1,0-0.3,14.8,7,14.8c4,0,2.2-8.1,0.6-13.3
			c-1.5-5,0.1-8.7,4.8-8.7c9.1,0-0.2,15.5,7.1,15.5c7.1,0-3.3-11.5,3.5-11.5c6.6,0-1.8,11.5,7.5,11.5c4.8,0,5.4,6.8,8.8,6.8
			C163,267.5,167.9,262.6,160.3,254z"/>
		<polygon class="st1" points="81.4,135.2 81.4,135.2 81.3,135.2 81.3,135.2 		"/>
		<polygon class="st1" points="81.3,135.2 81.3,135.2 81.4,135.2 81.4,135.2 		"/>
		<polygon class="st3" points="94.6,122 94.6,122 84.3,129.8 81.4,108.1 78.5,129.8 68.3,122 81.4,135.2 		"/>
		<polygon class="st1" points="94.6,148.4 86.7,138.1 108.3,135.2 108.3,135.2 86.7,132.2 94.6,122 81.4,135.2 81.4,162.2 
			84.3,140.5 		"/>
		<polygon class="st2" points="68.3,122 76.1,132.2 54.5,135.2 76.1,138.1 68.3,148.4 78.5,140.5 81.4,162.2 81.4,135.2 		"/>
		<polygon class="st1" points="268.5,104.2 268.5,104.2 268.4,104.2 268.4,104.2 		"/>
		<polygon class="st1" points="268.4,104.2 268.4,104.2 268.5,104.2 268.5,104.2 		"/>
		<polygon class="st3" points="289.6,83 289.6,83 273.2,95.5 268.5,60.7 263.8,95.5 247.4,83 268.5,104.2 		"/>
		<polygon class="st1" points="289.6,125.4 277,108.9 311.6,104.2 311.6,104.2 277,99.4 289.6,83 268.5,104.2 268.5,147.6 
			273.2,112.7 		"/>
		<path class="st2" d="M247.4,83l12.6,16.4l-24.6,3.4l0.6-6.6l-25.8-2.6l-0.9,28.7l-18-2.5l0.4,20.7l17,1l-2.3,67.3
			c-0.3,19.7,8.3,29.6,26,29.6c0,0,3.2-18.5,3-19.2c-6.2-1.1-9-5.8-8.3-14.1l5.1-62.4l20.2,1.5l1.7-16.3l-20.6-2.2l1.6-19.8
			l24.8,3.3l-12.7,16.5l16.4-12.7l4.7,34.8v-43.4L247.4,83z"/>
	</g>
</g>
</svg>
