<?xml version="1.0" encoding="utf-8"?>
<!-- Generator: Adobe Illustrator 24.1.3, SVG Export Plug-In . SVG Version: 6.00 Build 0)  -->
<svg version="1.1" id="Capa_1" xmlns="http://www.w3.org/2000/svg" xmlns:xlink="http://www.w3.org/1999/xlink" x="0px" y="0px"
	 viewBox="0 0 478.1 198.2" style="enable-background:new 0 0 478.1 198.2;" xml:space="preserve">
<style type="text/css">
	.st0{fill:#006EAE;}
	.st1{fill:#542F70;}
	.st2{fill:#2E1A46;}
	.st3{fill:#D47E00;}
</style>
<g id="Capa_2_1_">
	<g id="Capa_1-2">
		<path class="st0" d="M121.8,129.9l8.8,44.1l-14.9,2.9c-3.5-18.7-8-39.6-13.6-62.7l11-3.3l2.5,9.8c0.8-5.2,4.3-8.7,10.4-10.6
			c0.9-0.3,1.8-0.5,2.7-0.6c4.9-0.9,9,0,12.1,2.7c3.7,3.3,6.3,9.1,7.9,17.4l-13.3,3.9c-0.1-0.7-0.2-1.4-0.3-2
			c-1.2-6.5-3.5-9.5-6.9-8.8h-0.2C124.1,123.6,122,126,121.8,129.9z"/>
		<path class="st1" d="M174.4,162.5c-4.6-0.8-6.6-4.3-6.1-10.4l3.8-46.3l15,1.1l1.3-12.1L173,93.1l1.8-21.6l-19.1-1.9l-0.6,21.2
			l-13.3-1.9l0.3,15.3l12.6,0.7l-1.7,49.9c-0.2,14.6,6.2,21.9,19.2,21.9L174.4,162.5z"/>
		<path class="st2" d="M201.4,151.4l14.8,0.9c0,14.9-6.9,22.5-20.7,22.7c-0.1,0-0.3,0.1-0.4,0.1c-13.1,0-19.7-10-19.7-29.9v-1.9
			c0.4-21.4,7.4-32.2,21-32.4h0.5c12.5,0,18.8,7.2,18.8,21.5c0,0.8,0,1.7-0.1,2.5l-13.4,1v-1.5c0-7.5-2.1-11.3-6.4-11.3
			c-4.3,0-6.4,6.1-6.5,18.3v2.1c0.3,13.2,2.5,19.8,6.6,19.8h0.4c3.6-0.3,5.4-3,5.4-8.3C201.6,153.9,201.5,152.6,201.4,151.4z"/>
		<path class="st2" d="M244.4,111.4c13.6,0.8,20.4,7.6,20.4,20.6V176l-14.5,0.2l-0.5-5.9c-3,3.4-7.3,5.3-11.9,5.1
			c-2.3,0-4.6-0.4-6.8-1c-7.3-1.8-11-7.5-11-17c0-1.2,0.1-2.4,0.2-3.7c0.8-9.8,7.8-14.7,20.9-14.7c2.8,0,5.6,0.2,8.3,0.6v-7.2
			c0-5.8-1.8-8.8-5.5-8.8h-0.2c-0.3,0-0.5-0.1-0.8-0.1c-4,0-6,3.3-6,9.8v0.9l-14.8-1.2c0-14.5,7-21.7,20.9-21.7L244.4,111.4z
			 M249.6,160.4v-10.9c-1.6-0.4-3.2-0.5-4.8-0.6c-3.8,0-6.3,1.3-7.7,3.8c-0.8,1.3-1.2,2.8-1.2,4.3c0,1.7,0.7,3.3,2,4.4
			c1.1,1,2.5,1.5,4,1.5C243.9,162.9,246.5,162.1,249.6,160.4L249.6,160.4z"/>
		<path class="st2" d="M315.5,89.1c-0.2,14-0.4,28.7-0.4,44c0,14,0.1,28.6,0.3,43.7l-14.7,0.1l-0.5-9.5c-3.1,4.6-7.1,6.9-12.2,6.9
			c-12.7,0-19.1-9.7-19.1-29.2c0-0.4,0-0.8,0.1-1.2c0.3-19.5,6.6-29.3,18.9-29.3c0.5,0,1,0,1.5,0.1c4.2,0.3,7.6,2.6,10.2,6.9
			c0-9.2-0.2-20-0.7-32.5L315.5,89.1z M299.9,154.7l-0.3-21.5c-2.4-3.3-4.9-4.9-7.4-4.9c-1.1,0-2.2,0.3-3.1,0.8
			c-3.3,1.7-4.9,6.5-4.9,14.3c0,0.9,0,1.8,0.1,2.8c0.4,9.5,2.5,14.5,6.3,15c0.4,0,0.7,0.1,1.1,0.1
			C295.1,161.2,297.8,159.1,299.9,154.7z"/>
		<path class="st2" d="M340.3,113.2c14.4,0,21.6,9.5,21.5,28.6c0,2.3-0.1,4.8-0.3,7.4h-27.8c0,10.7,2,16,6.1,16h0.4
			c3.6-0.3,5.4-3,5.4-8.3c0-1.2-0.1-2.5-0.2-3.7l14.8-0.3c0,15.8-6.9,23.8-20.7,24c-0.1,0-0.3,0.1-0.4,0.1
			c-13.1,0-19.7-10-19.7-29.9v-1.9C319.9,123.9,326.9,113.2,340.3,113.2z M332.3,137.8h14v-1.5c0-7.5-2.1-11.3-6.4-11.3
			C335.3,125,332.8,129.3,332.3,137.8L332.3,137.8z"/>
		<path class="st2" d="M377.3,111.9l0.2,9.9c2.2-4.8,4.8-7.7,7.8-8.9c1.7-0.7,3.5-1,5.3-1c1.3,0,2.7,0.2,4,0.5
			c3.2,0.8,5.5,4.1,6.9,9.9c1.1-4.5,2.9-7.5,5.6-9c2.7-1.5,5.7-2.3,8.8-2.3h0.2c3.2,0,6.3,0.8,9.1,2.3c2.9,1.6,5.2,4.5,6.7,8.8
			c1.6,4.3,2.4,10.3,2.5,17.8v36l-13.4,0.3c0.5-13.6,0.8-25.2,0.8-34.8s-1.8-14.7-5.5-15.5c-0.5-0.1-1-0.1-1.5-0.1
			c-2.9,0-5.1,1.9-6.7,5.6c-0.2,4.3-0.4,9.3-0.4,15.1c0,7.8,0.2,17,0.7,27.4l-15.5,0.1c0.6-16,0.9-27.7,0.9-35v-0.8
			c0-7.2-1.5-11-4.3-11.4h-0.8c-2.5,0-5,1.5-7.3,4.3l0.1,45.5l-14.7,0.6v-10.2c0-18.1-0.3-36.1-0.8-54.1L377.3,111.9z"/>
		<path class="st2" d="M438.7,177.6c-0.3-24.2-0.4-45.2-0.4-62.8l15.7-0.9c-0.5,16.9-0.7,33.7-0.8,50.4c0,4.5,0,8.9,0.1,13.4H438.7z
			"/>
		<polygon class="st0" points="94.5,95.6 89.6,72.5 74.1,92.9 		"/>
		<polygon class="st1" points="31,72.5 26.1,95.6 46.5,92.9 		"/>
		<path class="st3" d="M79.6,24.8c0,0-1.6-7.2-0.8-12.4c1-5.9-2.5-10.4-8-10.4c-2.1,0-3.3,2.1-0.7,4.9c4.6,4.9-0.1,6.4-2.7,6.4
			c-5.4,0-5.9-2.7-5.4-5.7C62.7,4,63.7,0,61,0c-3.4,0-4,5-2.6,9.7c1.4,4.4,2,8.6-2,8.6c-5.9,0,1.2-10.6-4.3-10.6
			c-2.6,0-1.7,4.3-5.2,4.3c-7,0-0.4-10.5-5.5-10.5c-5.5,0,1.7,14.6-0.3,23.2l-9.6,45.6l21.3,16.2l7.5-55.5l7.5,55.5l21.3-16.2
			L79.6,24.8z"/>
		<path class="st1" d="M44.7,134.2h10.8l-2.7-20.1l-26.3,20l20-26.3l-22.3-3l-14.1,67.4c-0.8,3.2-1.9,6.3-3.3,9.3
			c-1.8,4-6.8,8.2-6.8,11.8c0,0.9,0.4,4.7,4.3,4.7c3.3,0,5.9-4.3,5.7-6.8c-0.3-5.1,2.3-6.6,4.4-6.6c5.5,0,1.5,7.6,5.7,7.6
			c1.8,0,2.1-2.7,0.2-6c-3-5.3-0.3-8.5,2.8-8.5c5.2,0-2.6,19,2.5,19c6.2,0-1.7-11.7,3.2-11.7c1.5,0,0.6,3.7,3.3,3.7
			c3.9,0,1.2,4.3,4.5,4.3c2.4,0,0.8-3.9,0.4-5.2c-0.9-3.9-1-8-0.3-12L44.7,134.2z"/>
		<path class="st0" d="M118.8,188.3c-4.2-4.4-7-10-8.2-15.9l0,0l-14.2-67.5l-22.3,3l20,26.3l-26.3-20l-2.7,20.1h10.8l7.8,41.8l0,0
			c0,0.1,1,5.6,0.8,7.7c-0.3,3.8-3.7,9.9,0.4,9.9c2.9,0-0.8-6.5,3.5-6.5c5.2,0-0.2,11,5.2,11c3,0,1.6-6,0.4-9.8
			c-1.1-3.7,0.1-6.5,3.5-6.5c6.7,0-0.2,11.5,5.3,11.5c5.3,0-2.4-8.5,2.6-8.5s-1.4,8.5,5.6,8.5c3.6,0,4,5.1,6.5,5.1
			C120.8,198.2,124.5,194.6,118.8,188.3z"/>
		<polygon class="st0" points="60.3,100.2 60.3,100.2 60.3,100.2 60.3,100.2 		"/>
		<polygon class="st0" points="60.3,100.2 60.3,100.2 60.3,100.2 60.3,100.2 		"/>
		<polygon class="st3" points="70.1,90.4 70.1,90.4 62.5,96.2 60.3,80.1 58.2,96.2 50.6,90.4 60.3,100.2 		"/>
		<polygon class="st0" points="70.1,110 64.3,102.3 80.2,100.2 80.2,100.2 64.3,98 70.1,90.4 60.3,100.2 60.3,120.2 62.5,104.1 		
			"/>
		<polygon class="st1" points="50.6,90.4 56.4,98 40.4,100.2 56.4,102.3 50.6,110 58.2,104.1 60.3,120.2 60.3,100.2 		"/>
		<polygon class="st0" points="446.1,77.3 446.1,77.3 446.1,77.3 446.1,77.3 		"/>
		<polygon class="st0" points="446.1,77.3 446.1,77.3 446.1,77.3 446.1,77.3 		"/>
		<polygon class="st3" points="461.8,61.5 461.8,61.5 449.6,70.8 446.1,45 442.7,70.8 430.5,61.5 446.1,77.3 		"/>
		<polygon class="st0" points="461.8,93 452.5,80.7 478.1,77.3 478.1,77.3 452.5,73.7 461.8,61.5 446.1,77.3 446.1,109.4 
			449.6,83.6 		"/>
		<polygon class="st1" points="430.5,61.5 439.8,73.7 414.1,77.3 439.8,80.7 430.5,93 442.7,83.6 446.1,109.4 446.1,77.3 		"/>
	</g>
</g>
</svg>
